<svg width="164" height="56" viewBox="0 0 164 56" fill="none" xmlns="http://www.w3.org/2000/svg">
<g clip-path="url(#clip0_20_84)">
<path d="M98.9099 56L99.663 53.263C98.9035 53.1764 98.163 52.968 97.4698 52.6458C96.5638 52.2207 95.8028 51.5387 95.2812 50.6846C94.7528 49.7864 94.4859 48.7585 94.511 47.7167V47.4927C94.4879 46.4478 94.7546 45.417 95.2812 44.5142C95.8017 43.6578 96.5629 42.9736 97.4698 42.5472C98.5075 42.0701 99.6401 41.8359 100.782 41.8624C101.851 41.8494 102.911 42.0596 103.894 42.4795C104.75 42.8286 105.497 43.4016 106.055 44.1385C106.357 44.5469 106.576 45.0101 106.702 45.5023H104.521C104.453 45.3761 104.372 45.2569 104.281 45.1465C103.9 44.7028 103.408 44.3688 102.854 44.1793C102.19 43.942 101.488 43.8235 100.783 43.8293C99.6601 43.7552 98.549 44.0915 97.6555 44.7755C97.285 45.1128 96.9957 45.529 96.8079 45.9935C96.62 46.465 96.5376 46.9719 96.5663 47.4786V47.7633C96.536 48.2671 96.6185 48.7713 96.8079 49.2392C96.9923 49.7017 97.2797 50.1159 97.6487 50.4501C98.5459 51.1319 99.6586 51.4667 100.783 51.3929C101.498 51.4066 102.21 51.2904 102.884 51.0499C103.43 50.8674 103.917 50.5405 104.293 50.1036C104.557 49.7922 104.722 49.41 104.771 49.0047L106.825 48.9848C106.782 49.7426 106.516 50.4707 106.06 51.0778C105.5 51.8111 104.754 52.3823 103.9 52.7333C103.241 53.0107 102.546 53.1899 101.835 53.2653L101.075 55.9965L98.9099 56ZM75.482 53.3377H75.3248C74.2371 53.3379 73.1621 53.1018 72.1746 52.6458C71.2663 52.2241 70.5044 51.5413 69.9859 50.6846C69.456 49.7871 69.189 48.7587 69.2157 47.7167V47.4927C69.191 46.4476 69.4578 45.4163 69.9859 44.5142C70.5043 43.656 71.2661 42.9713 72.1746 42.5472C73.2109 42.0699 74.3425 41.8357 75.4832 41.8624C76.5512 41.8496 77.6102 42.0598 78.5924 42.4795C79.4506 42.8271 80.1981 43.4003 80.7571 44.1385C81.0581 44.5471 81.2776 45.0103 81.4019 45.5023H79.2247C79.1525 45.378 79.0714 45.2591 78.982 45.1465C78.5994 44.7014 78.1036 44.3673 77.5476 44.1793C76.8854 43.9415 76.1868 43.823 75.4832 43.8293C74.3604 43.7557 73.2494 44.092 72.3557 44.7755C71.9863 45.113 71.6969 45.5292 71.5103 45.9935C71.3212 46.4647 71.238 46.9717 71.2665 47.4786V47.7633C71.2381 48.2672 71.3214 48.7712 71.5103 49.2392C71.6948 49.7017 71.9821 50.1159 72.3512 50.4501C73.2457 51.1344 74.3595 51.4695 75.4832 51.3929C76.1943 51.4064 76.9021 51.2902 77.5715 51.0499C78.1222 50.871 78.6125 50.5436 78.9888 50.1036C79.2507 49.7911 79.4166 49.4094 79.4662 49.0047L81.5227 48.9673C81.4786 49.7237 81.2125 50.4504 80.7582 51.0568C80.1959 51.7917 79.4494 52.3642 78.5935 52.7158C77.6337 53.122 76.6017 53.3319 75.5595 53.333L75.482 53.3377ZM122.749 52.6493H122.735C121.84 52.2197 121.092 51.5355 120.583 50.6824C120.06 49.7786 119.795 48.7481 119.818 47.7038V47.5172C119.795 46.4707 120.06 45.4381 120.583 44.5316C121.089 43.6723 121.841 42.9847 122.742 42.5577C123.768 42.1044 124.876 41.8699 125.997 41.8693C127.119 41.87 128.228 42.1044 129.255 42.5577C130.151 42.9887 130.9 43.6755 131.407 44.5316C131.928 45.4387 132.192 46.4712 132.168 47.5172V47.7038C132.19 48.7473 131.927 49.7772 131.407 50.6824C130.898 51.5323 130.152 52.2157 129.261 52.6493C128.235 53.1025 127.126 53.337 126.004 53.3377C124.883 53.3367 123.774 53.103 122.749 52.6493ZM122.956 44.793C122.589 45.1335 122.302 45.5521 122.117 46.018C121.928 46.4886 121.845 46.9947 121.872 47.5009V47.7412C121.845 48.2451 121.929 48.7488 122.117 49.217C122.303 49.6792 122.59 50.0942 122.956 50.4315C123.852 51.0502 124.915 51.3826 126.004 51.3847C127.093 51.3821 128.156 51.0498 129.053 50.4315C129.417 50.0928 129.701 49.6782 129.887 49.217C130.075 48.7487 130.159 48.2451 130.132 47.7412V47.5009C130.155 46.9949 130.072 46.4896 129.887 46.018C129.703 45.553 129.418 45.1346 129.053 44.793C128.162 44.1616 127.096 43.8217 126.004 43.82C124.911 43.8216 123.845 44.1614 122.953 44.793H122.956ZM59.1669 52.703V52.7135C58.4002 52.3101 57.7679 51.6923 57.3463 50.9355C56.9026 50.1181 56.678 49.1996 56.6957 48.2697V42.0863H58.7214V48.321C58.6977 48.7377 58.7607 49.1548 58.906 49.546C59.0453 49.9368 59.2639 50.2943 59.5486 50.596C60.2132 51.1214 61.0347 51.4089 61.8819 51.4127C62.7293 51.4102 63.5513 51.1225 64.2152 50.596C64.504 50.2984 64.7275 49.9434 64.8704 49.5541C65.017 49.162 65.0796 48.7437 65.0561 48.3257V42.0805H67.0818V48.2639C67.1009 49.1943 66.8762 50.1135 66.429 50.9297C66.0094 51.6891 65.3751 52.3083 64.606 52.71C63.7628 53.142 62.8244 53.3543 61.8774 53.3271C61.8202 53.3271 61.7601 53.3271 61.7065 53.3271C60.8224 53.3228 59.9523 53.1089 59.1669 52.703ZM117.256 53.1778L116.156 50.6508H110.531L109.437 53.1778H107.384V52.85L112.231 42.1003H114.458L119.304 52.85V53.172L117.256 53.1778ZM111.352 48.727H115.298L113.326 44.198L111.352 48.727ZM91.9293 53.1498L90.8355 50.6193H85.2107L84.1169 53.1498H82.0616V52.8278L86.9083 42.0747H89.1357L93.9812 52.8278V53.1498H91.9293ZM86.0504 48.727H89.9913L88.0237 44.2015L86.0504 48.727ZM31.8357 53.1498V42.0747H41.0653V43.967H33.8534V46.6504H40.7372V48.5426H33.8534V51.2564H41.0653V53.1487L31.8357 53.1498ZM43.516 53.1498V42.0782H48.643C50.2425 41.9629 51.8261 42.4572 53.0761 43.4618C53.6028 43.9898 54.0097 44.6246 54.2701 45.3233C54.5305 46.0221 54.6384 46.7686 54.5857 47.5125V47.733C54.6384 48.4753 54.5306 49.2202 54.2701 49.9173C54.0096 50.6144 53.6026 51.2473 53.0761 51.7732C51.8236 52.7725 50.2412 53.264 48.643 53.1498H43.516ZM45.5383 51.2575H48.6418C49.701 51.3498 50.7565 51.0436 51.6018 50.3988H51.571C51.9112 50.0588 52.1722 49.6476 52.3344 49.1948C52.5021 48.7373 52.5697 48.2492 52.5326 47.7633V47.4985C52.5326 45.1411 51.2292 43.9639 48.6236 43.967H45.5372L45.5383 51.2575ZM115.022 40.81H114.987C114.72 40.8094 114.453 40.7868 114.189 40.7423L114.172 40.691C113.91 40.6467 113.58 40.5743 113.248 40.4938C112.716 40.3417 112.167 40.2563 111.615 40.2395C110.995 40.2448 110.386 40.3996 109.838 40.691V38.9667C110.398 38.6701 111.019 38.5102 111.652 38.5C112.21 38.52 112.764 38.6158 113.296 38.7847C113.706 38.8827 114.032 38.9573 114.274 39.0017C114.531 39.0495 114.792 39.0722 115.054 39.0693C115.682 39.0621 116.301 38.9184 116.868 38.6482V40.4227C116.297 40.6758 115.679 40.8065 115.054 40.8065L115.022 40.81Z" fill="#111111"/>
<path d="M105.771 19.1053V0.457372H111.556V19.5323C111.556 23.3298 114.379 26.733 119.21 26.733C124.042 26.733 126.864 23.3298 126.864 19.5323L126.857 0.457372H132.643V19.1053C132.643 27.5823 126.764 32.6667 119.204 32.6667C111.644 32.6667 105.771 27.6126 105.771 19.1053ZM137.212 30.072L139.259 24.6213C142.541 25.9705 146.049 26.6877 149.597 26.7354C154.147 26.7354 157.447 25.8918 157.447 23.5585C157.447 19.9547 150.833 19.9547 144.632 17.8419C139.67 16.1455 137.604 13.5881 137.604 9.33448C137.604 3.39731 143.396 0.00114441 151.237 0.00114441C154.922 0.0104467 158.571 0.730212 161.984 2.121L159.923 7.63119C156.9 6.45785 153.678 5.88251 150.436 5.93716C146.288 5.93716 143.822 6.79354 143.822 8.90054C143.822 11.8674 150.238 12.488 154.987 13.9872C160.36 15.6812 163.666 17.3775 163.666 22.8876C163.666 29.2448 158.299 32.6084 148.781 32.6084C144.771 32.7616 140.788 31.8865 137.212 30.0662V30.072ZM84.6855 32.2455V5.96749H74.3552V0.457372L101.225 0.46784V5.9687H90.4778V32.2408L84.6855 32.2455ZM64.009 32.2455V0.457372H69.8013V32.2408L64.009 32.2455ZM42.5111 32.2455V5.96749H32.1729V0.457372L59.0507 0.46784V5.9687H48.2943V32.2408L42.5111 32.2455ZM26.7885 32.2455L16.8718 0.472539L10.127 22.0745H19.359L21.011 27.5847H8.41121L6.9506 32.2455H0.335693L10.2592 0.462001H23.4867L33.4125 32.2455H26.7885Z" fill="#111111"/>
</g>
<defs>
<clipPath id="clip0_20_84">
<rect width="163.333" height="56" fill="white" transform="translate(0.333374)"/>
</clipPath>
</defs>
</svg>
