<svg width="131" height="96" viewBox="0 0 131 96" fill="none" xmlns="http://www.w3.org/2000/svg">
<path d="M65.6665 96C68.9728 96 72.0429 94.7011 74.4045 92.3395L127.423 39.321C129.548 37.1956 130.847 34.2435 130.847 31.1734V30.583C130.847 27.5129 129.667 24.5609 127.423 22.4354L106.995 2.36162C105.46 0.826568 103.453 0 101.327 0H65.6665H30.006C27.8806 0 25.8732 0.826568 24.3381 2.36162L3.91007 22.4354C1.66653 24.5609 0.485718 27.5129 0.485718 30.583V31.1734C0.485718 34.2435 1.66653 37.1956 3.91007 39.321L56.9285 92.3395C59.1721 94.7011 62.3603 96 65.6665 96Z" fill="url(#paint0_radial_20_56)"/>
<path d="M29.1794 0V0.118088C31.5411 0.118088 33.7846 0.944657 35.4377 2.47971L59.4082 24.0886C60.7071 25.2694 62.3603 25.8598 64.1315 25.8598H65.5485H66.9654C68.7366 25.8598 70.3898 25.1513 71.6887 24.0886L95.6591 2.47971C97.4304 0.944657 99.6739 0.118088 101.917 0.118088V0C101.681 0 101.445 0 101.091 0H65.4304H30.006C29.6518 0 29.4156 0 29.1794 0Z" fill="#2C2A7A"/>
<defs>
<radialGradient id="paint0_radial_20_56" cx="0" cy="0" r="1" gradientUnits="userSpaceOnUse" gradientTransform="translate(61.9237 58.1057) rotate(-2.44888) scale(521.688 416.814)">
<stop stop-color="#EE2E60"/>
<stop offset="1" stop-color="#EE2E60" stop-opacity="0"/>
</radialGradient>
</defs>
</svg>
