<svg width="252" height="40" viewBox="0 0 252 40" fill="none" xmlns="http://www.w3.org/2000/svg">
<path d="M63.4258 6.57472C57.3502 6.57472 52.1491 9.10346 48.9272 15.8161L48.8811 12.3678V7.2184H41.2866V39.0805H48.8811V24.8736C48.8811 20.9195 53.0696 13.1035 61.0324 13.1035C68.0746 13.1035 68.6269 19.2184 68.6269 22.9885C68.6269 27.1264 68.6269 39.0345 68.6269 39.0345H76.1294C76.1294 39.0345 76.1294 25.3333 76.1294 21.2414C76.1294 9.70116 70.0537 6.57472 63.4258 6.57472Z" fill="#111111"/>
<path d="M175.733 6.57472C169.795 6.57472 164.594 9.10346 161.372 15.8161L161.326 12.3678V7.2184H153.731V39.0805H161.326V24.8736C161.326 20.9195 165.514 13.1035 174.306 13.1035C179.829 13.1035 181.44 16.2299 181.44 22.115L188.528 22.069C188.988 10.2069 182.729 6.57472 175.733 6.57472Z" fill="#111111"/>
<path d="M92.2849 20.9655C92.2849 14.8506 95.737 10.6207 99.3731 8.32185V19.2644H105.955V6.71265V5.93104V0.183914H99.3731H80.1797V6.71265H94.7243C87.9123 10.6207 85.2427 16.6897 85.2427 23.7701C85.2427 31.6782 88.6027 38.9425 101.076 38.9425C105.541 38.9425 105.955 38.9425 105.955 38.9425V31.954C105.587 31.954 104.758 31.954 102.963 31.954C96.4274 32.046 92.2849 29.3793 92.2849 20.9655Z" fill="#111111"/>
<path d="M28.4449 27.7241C27.0181 32.7816 21.863 34.7586 17.7666 34.7586C11.8751 34.7586 7.54849 31.1264 7.45644 24.8736C7.45644 24.4138 7.45644 23.954 7.45644 23.5402H33.4619C33.7381 13.0115 27.2022 6.57472 17.3523 6.57472C8.28493 6.57472 0 12.046 0 23.2644C0 34.023 8.00877 39.8161 17.6745 39.8161C25.5912 39.8161 33.4159 36.046 35.211 27.7241H28.4449ZM17.2603 11.4943C22.8296 11.4943 25.5912 14.8046 25.9595 19.6322H7.87068C8.74521 15.2644 11.2307 11.4943 17.2603 11.4943Z" fill="#111111"/>
<path d="M140.89 27.7241C139.463 32.7816 134.308 34.7586 130.212 34.7586C124.32 34.7586 119.993 31.1264 119.901 24.8736C119.901 24.4138 119.901 23.954 119.901 23.5402H145.861C146.137 13.0115 139.601 6.57472 129.751 6.57472C120.684 6.57472 112.399 12.046 112.399 23.2644C112.399 34.023 120.408 39.8161 130.073 39.8161C137.99 39.8161 145.815 36.046 147.61 27.7241H140.89ZM129.705 11.4943C135.275 11.4943 138.036 14.8046 138.404 19.6322H120.27C121.19 15.2644 123.676 11.4943 129.705 11.4943Z" fill="#111111"/>
<path d="M181.44 31.3103V30.023H188.574V31.3103H185.767V39.0805H184.248V31.3103H181.44Z" fill="#111111"/>
<path d="M191.244 39.0805V30.023H197.043V31.3103H192.763V33.931H196.767V35.2184H192.763V37.8391H197.089V39.1264H191.244V39.0805Z" fill="#111111"/>
<path d="M207.722 33.0115H206.203C206.157 32.7356 206.065 32.4598 205.926 32.2759C205.788 32.046 205.604 31.8621 205.42 31.7241C205.236 31.5862 205.006 31.4483 204.73 31.4023C204.5 31.3103 204.223 31.3103 203.947 31.3103C203.441 31.3103 202.981 31.4483 202.612 31.6782C202.244 31.908 201.922 32.3218 201.692 32.7816C201.462 33.2874 201.37 33.8851 201.37 34.5747C201.37 35.3103 201.462 35.908 201.692 36.3678C201.922 36.8736 202.244 37.2414 202.612 37.4713C203.027 37.7011 203.441 37.8391 203.947 37.8391C204.223 37.8391 204.5 37.7931 204.73 37.7471C204.96 37.6552 205.19 37.5632 205.42 37.4253C205.604 37.2874 205.788 37.1034 205.926 36.8736C206.065 36.6437 206.157 36.4138 206.203 36.1379H207.722C207.676 36.5977 207.537 36.9655 207.307 37.3793C207.077 37.7471 206.847 38.069 206.479 38.3448C206.157 38.6207 205.788 38.8506 205.328 38.9885C204.914 39.1264 204.408 39.2184 203.901 39.2184C203.119 39.2184 202.382 39.0345 201.784 38.6667C201.186 38.2988 200.679 37.7471 200.311 37.0575C199.943 36.3678 199.759 35.5402 199.759 34.5747C199.759 33.6092 199.943 32.7816 200.311 32.0919C200.679 31.4023 201.14 30.8506 201.784 30.4828C202.382 30.1149 203.119 29.931 203.901 29.931C204.408 29.931 204.868 30.023 205.282 30.1609C205.696 30.2988 206.111 30.4828 206.433 30.7586C206.755 31.0345 207.031 31.3563 207.261 31.7241C207.491 32.0919 207.629 32.5517 207.722 33.0115Z" fill="#111111"/>
<path d="M210.529 39.0805V30.023H212.048V33.885H216.421V30.023H217.94V39.0805H216.421V35.1724H212.048V39.0805H210.529Z" fill="#111111"/>
<path d="M225.488 39.0805V30.023H231.288V31.3103H227.007V33.931H231.011V35.2184H227.007V37.8391H231.334V39.1264H225.488V39.0805Z" fill="#111111"/>
<path d="M237.271 39.0805H234.279V30.023H237.363C238.284 30.023 239.02 30.2069 239.665 30.5747C240.309 30.9425 240.815 31.4483 241.138 32.1379C241.46 32.8276 241.644 33.6092 241.644 34.5747C241.644 35.5402 241.46 36.3218 241.138 37.0115C240.769 37.7011 240.309 38.2069 239.619 38.5747C238.928 38.9425 238.238 39.0805 237.271 39.0805ZM235.798 37.7931H237.225C237.87 37.7931 238.422 37.6552 238.882 37.4253C239.342 37.1954 239.665 36.8276 239.895 36.3218C240.125 35.8621 240.217 35.2644 240.217 34.5287C240.217 33.8391 240.125 33.2414 239.895 32.7816C239.665 32.3218 239.342 31.954 238.928 31.7241C238.514 31.4942 237.962 31.3563 237.317 31.3563H235.844V37.7931H235.798Z" fill="#111111"/>
<path d="M250.343 30.023H251.862V35.954C251.862 36.5977 251.724 37.1494 251.402 37.6552C251.079 38.1609 250.665 38.5287 250.113 38.8046C249.56 39.0805 248.916 39.2184 248.18 39.2184C247.443 39.2184 246.799 39.0805 246.246 38.8046C245.694 38.5287 245.28 38.1609 244.958 37.6552C244.636 37.1494 244.497 36.5977 244.497 35.954V30.023H246.016V35.8621C246.016 36.2759 246.108 36.5977 246.293 36.9195C246.477 37.2414 246.707 37.4713 247.029 37.6552C247.351 37.8391 247.719 37.931 248.18 37.931C248.594 37.931 249.008 37.8391 249.33 37.6552C249.653 37.4713 249.883 37.2414 250.067 36.9195C250.251 36.5977 250.343 36.2759 250.343 35.8621V30.023Z" fill="#111111"/>
</svg>
