<svg width="39" height="40" viewBox="0 0 39 40" fill="none" xmlns="http://www.w3.org/2000/svg">
<path d="M38.875 20C38.875 9.29688 30.2031 0.625 19.5 0.625C8.79688 0.625 0.125 9.29688 0.125 20C0.125 29.6703 7.21016 37.6859 16.4727 39.1406V25.6008H11.5508V20H16.4727V15.7312C16.4727 10.8758 19.3633 8.19375 23.7906 8.19375C25.9109 8.19375 28.1281 8.57188 28.1281 8.57188V13.3375H25.6844C23.2781 13.3375 22.5273 14.8312 22.5273 16.3633V20H27.9008L27.0414 25.6008H22.5273V39.1406C31.7898 37.6859 38.875 29.6703 38.875 20Z" fill="url(#paint0_linear_20_90)"/>
<defs>
<linearGradient id="paint0_linear_20_90" x1="0.21347" y1="19.8828" x2="38.9635" y2="19.8828" gradientUnits="userSpaceOnUse">
<stop stop-color="#4B89B0"/>
<stop offset="1" stop-color="#08B685"/>
</linearGradient>
</defs>
</svg>
