<svg width="97" height="96" viewBox="0 0 97 96" fill="none" xmlns="http://www.w3.org/2000/svg">
<path d="M75.2015 73.434C73.3501 73.4407 71.5159 73.0805 69.8046 72.3742C68.0933 71.6678 66.5389 70.6294 65.2313 69.3188L50.8297 54.908C50.3203 54.421 49.6426 54.1491 48.9378 54.1491C48.233 54.1491 47.5554 54.421 47.046 54.908L32.5957 69.3584C31.2889 70.6709 29.7349 71.7114 28.0236 72.4198C26.3124 73.1282 24.4776 73.4905 22.6255 73.4857H19.806L38.0552 91.7349C40.7922 94.4661 44.5009 96 48.3675 96C52.2341 96 55.9428 94.4661 58.6799 91.7349L76.9655 73.4462L75.2015 73.434Z" fill="url(#paint0_linear_20_43)"/>
<path d="M22.6286 22.5066C24.4807 22.5017 26.3155 22.8639 28.0268 23.5723C29.7381 24.2807 31.292 25.3214 32.5987 26.634L47.049 41.0873C47.5513 41.5881 48.2316 41.8692 48.9409 41.8692C49.6501 41.8692 50.3304 41.5881 50.8327 41.0873L65.2313 26.6887C66.537 25.3745 68.0906 24.3326 69.8021 23.6235C71.5136 22.9145 73.3489 22.5524 75.2015 22.5583H76.9351L58.6494 4.27262C57.2954 2.91807 55.6877 1.84355 53.9183 1.11044C52.1489 0.377331 50.2524 0 48.3371 0C46.4218 0 44.5253 0.377331 42.7559 1.11044C40.9865 1.84355 39.3789 2.91807 38.0248 4.27262L19.806 22.5066H22.6286Z" fill="url(#paint1_linear_20_43)"/>
<path d="M92.0608 37.6869L81.0109 26.637C80.7617 26.7389 80.4954 26.7926 80.2262 26.7952H75.2015C72.5869 26.8017 70.0805 27.8402 68.2273 29.6847L53.8287 44.0741C52.532 45.3685 50.7747 46.0955 48.9425 46.0955C47.1103 46.0955 45.353 45.3685 44.0563 44.0741L29.6029 29.6299C27.7502 27.7843 25.2438 26.7448 22.6287 26.7374H16.4604C16.2062 26.7317 15.955 26.6812 15.7183 26.5884L4.59845 37.6869C1.86726 40.4239 0.333374 44.1326 0.333374 47.9992C0.333374 51.8659 1.86726 55.5745 4.59845 58.3116L15.694 69.4071C15.9302 69.3125 16.1817 69.262 16.4361 69.258H22.6287C25.2437 69.2504 27.75 68.2109 29.6029 66.3655L44.0532 51.9152C46.6659 49.3056 51.2191 49.3056 53.8287 51.9152L68.2273 66.3108C70.0805 68.1553 72.5869 69.1937 75.2015 69.2002H80.2262C80.4955 69.2021 80.7619 69.2558 81.0109 69.3584L92.0608 58.3085C93.4153 56.9545 94.4898 55.3468 95.223 53.5774C95.9561 51.808 96.3334 49.9115 96.3334 47.9962C96.3334 46.0809 95.9561 44.1844 95.223 42.415C94.4898 40.6456 93.4153 39.0379 92.0608 37.6839" fill="url(#paint2_linear_20_43)"/>
<defs>
<linearGradient id="paint0_linear_20_43" x1="19.9365" y1="75.0745" x2="77.096" y2="75.0745" gradientUnits="userSpaceOnUse">
<stop stop-color="#4B89B0"/>
<stop offset="1" stop-color="#08B685"/>
</linearGradient>
<linearGradient id="paint1_linear_20_43" x1="19.9365" y1="20.9346" x2="77.0656" y2="20.9346" gradientUnits="userSpaceOnUse">
<stop stop-color="#4B89B0"/>
<stop offset="1" stop-color="#08B685"/>
</linearGradient>
<linearGradient id="paint2_linear_20_43" x1="0.552551" y1="47.9977" x2="96.5526" y2="47.9977" gradientUnits="userSpaceOnUse">
<stop stop-color="#4B89B0"/>
<stop offset="1" stop-color="#08B685"/>
</linearGradient>
</defs>
</svg>
