<svg width="96" height="96" viewBox="0 0 96 96" fill="none" xmlns="http://www.w3.org/2000/svg">
<path d="M47.8369 80.4756C48.8208 80.4756 49.6742 80.1883 50.3971 79.6138C51.1201 79.0392 51.4816 78.147 51.4816 76.937V75.0321C55.9334 74.6278 59.4816 73.1652 62.126 70.6441C64.7705 68.1231 66.0928 64.7035 66.0928 60.3853C66.0928 56.3139 64.9798 53.0511 62.7539 50.5969C60.5279 48.1427 56.6944 46.0404 51.2533 44.2901C46.5351 42.692 43.3579 41.132 41.7218 39.61C40.0856 38.088 39.2675 36.1094 39.2675 33.6742C39.2675 31.6956 40.0285 30.126 41.5505 28.9655C43.0725 27.805 45.1272 27.2247 47.7146 27.2247C49.541 27.2247 51.1581 27.5482 52.566 28.195C53.9738 28.8419 55.2675 29.8882 56.4471 31.3341C57.1022 32.1617 57.8916 32.6255 58.8151 32.7254C59.7386 32.8252 60.6235 32.6088 61.4697 32.0761C62.4209 31.4673 62.9727 30.7146 63.1249 29.8181C63.2771 28.9216 63.0678 28.0382 62.497 27.1677C61.1272 25.3413 59.5957 23.9435 57.9025 22.9744C56.2093 22.0052 54.1451 21.3292 51.7099 20.9465V19.1772C51.7099 17.8911 51.3267 16.9988 50.5603 16.5004C49.7938 16.0019 48.9567 15.7527 48.049 15.7527C47.1412 15.7527 46.2878 16.0019 45.4887 16.5004C44.6897 16.9988 44.2901 17.8911 44.2901 19.1772V20.9465C40.2188 21.5933 37.1272 23.1085 35.0155 25.4921C32.9037 27.8757 31.8478 30.7568 31.8478 34.1356C31.8478 38.0515 32.9132 41.17 35.044 43.4911C37.1748 45.8121 41.2081 48.0761 47.1439 50.283C51.7479 52.0333 54.8205 53.5796 56.3615 54.9218C57.9025 56.2641 58.673 58.0853 58.673 60.3853C58.673 62.6683 57.7693 64.6183 55.962 66.2354C54.1546 67.8526 51.7479 68.6611 48.742 68.6611C46.3068 68.6611 44.0856 68.1094 42.0785 67.0059C40.0713 65.9025 38.5446 64.3044 37.4982 62.2117C37.0036 61.4126 36.3757 60.8133 35.6147 60.4138C34.8537 60.0143 34.0357 59.9477 33.1605 60.214C31.9415 60.6821 31.1897 61.427 30.905 62.4486C30.6203 63.4702 30.8205 64.4376 31.5054 65.3508C33.1415 68.0143 35.0076 70.1055 37.1036 71.6246C39.1997 73.1436 41.5191 74.2105 44.0618 74.8252V76.937C44.0618 77.9948 44.445 78.849 45.2114 79.4996C45.9779 80.1503 46.8531 80.4756 47.8369 80.4756ZM47.9502 96C41.1725 96 34.8537 94.7729 28.9941 92.3187C23.1344 89.8644 18.0642 86.497 13.7836 82.2164C9.50297 77.9358 6.13555 72.863 3.68133 66.9981C1.22711 61.1331 0 54.8168 0 48.0492C0 41.2435 1.22711 34.9298 3.68133 29.1082C6.13555 23.2866 9.50297 18.2164 13.7836 13.8977C18.0642 9.57907 23.137 6.18312 29.0019 3.70987C34.8669 1.23662 41.1832 0 47.9508 0C54.7565 0 61.0702 1.23662 66.8918 3.70987C72.7134 6.18312 77.7836 9.57907 82.1023 13.8977C86.4209 18.2164 89.8169 23.2841 92.2901 29.1009C94.7634 34.9177 96 41.234 96 48.0498C96 54.8275 94.7634 61.1463 92.2901 67.0059C89.8169 72.8656 86.4209 77.9358 82.1023 82.2164C77.7836 86.497 72.7159 89.8644 66.8991 92.3187C61.0823 94.7729 54.766 96 47.9502 96Z" fill="url(#paint0_linear_20_51)"/>
<defs>
<linearGradient id="paint0_linear_20_51" x1="0.219177" y1="48" x2="96.2192" y2="48" gradientUnits="userSpaceOnUse">
<stop stop-color="#4B89B0"/>
<stop offset="1" stop-color="#08B685"/>
</linearGradient>
</defs>
</svg>
