<svg width="41" height="34" viewBox="0 0 41 34" fill="none" xmlns="http://www.w3.org/2000/svg">
<path d="M36.3883 8.85282C36.4137 9.20813 36.4137 9.56352 36.4137 9.91883C36.4137 20.7563 28.165 33.2437 13.0888 33.2437C8.44414 33.2437 4.12945 31.8984 0.5 29.5635C1.15992 29.6396 1.79437 29.665 2.47969 29.665C6.31211 29.665 9.84008 28.3706 12.6573 26.1625C9.05328 26.0863 6.03297 23.7259 4.99234 20.4772C5.5 20.5533 6.00758 20.6041 6.54062 20.6041C7.27664 20.6041 8.01273 20.5025 8.69797 20.3249C4.94164 19.5634 2.1243 16.264 2.1243 12.2792V12.1777C3.21562 12.7869 4.48477 13.1676 5.82984 13.2183C3.62172 11.7462 2.17508 9.23352 2.17508 6.39086C2.17508 4.86805 2.58109 3.47211 3.2918 2.25383C7.32734 7.22844 13.3934 10.4771 20.1953 10.8325C20.0684 10.2234 19.9923 9.58891 19.9923 8.95438C19.9923 4.43657 23.6471 0.756409 28.1902 0.756409C30.5506 0.756409 32.6826 1.74625 34.1801 3.34524C36.0328 2.98992 37.8095 2.30461 39.3831 1.36555C38.7739 3.26914 37.4795 4.86813 35.7791 5.88328C37.4288 5.70571 39.0278 5.24875 40.4998 4.6143C39.3833 6.2386 37.9873 7.68524 36.3883 8.85282Z" fill="url(#paint0_linear_20_98)"/>
<defs>
<linearGradient id="paint0_linear_20_98" x1="0.591324" y1="17" x2="40.5912" y2="17" gradientUnits="userSpaceOnUse">
<stop stop-color="#4B89B0"/>
<stop offset="1" stop-color="#08B685"/>
</linearGradient>
</defs>
</svg>
