<svg width="44" height="30" viewBox="0 0 44 30" fill="none" xmlns="http://www.w3.org/2000/svg">
<path d="M42.4418 4.69398C41.9511 2.84633 40.5053 1.39117 38.6696 0.897344C35.3423 0 22 0 22 0C22 0 8.6578 0 5.33038 0.897344C3.49467 1.39125 2.04889 2.84633 1.55819 4.69398C0.666626 8.04297 0.666626 15.0303 0.666626 15.0303C0.666626 15.0303 0.666626 22.0177 1.55819 25.3666C2.04889 27.2143 3.49467 28.6088 5.33038 29.1027C8.6578 30 22 30 22 30C22 30 35.3422 30 38.6696 29.1027C40.5053 28.6088 41.9511 27.2143 42.4418 25.3666C43.3333 22.0177 43.3333 15.0303 43.3333 15.0303C43.3333 15.0303 43.3333 8.04297 42.4418 4.69398ZM17.6363 21.3743V8.68633L28.7878 15.0305L17.6363 21.3743Z" fill="url(#paint0_linear_20_96)"/>
<defs>
<linearGradient id="paint0_linear_20_96" x1="0.764038" y1="15" x2="43.4308" y2="15" gradientUnits="userSpaceOnUse">
<stop stop-color="#4B89B0"/>
<stop offset="1" stop-color="#08B685"/>
</linearGradient>
</defs>
</svg>
